<?xml version="1.0" encoding="UTF-8" standalone="no"?>
<!-- Created with Inkscape (http://www.inkscape.org/) -->

<svg
   width="480"
   height="648"
   viewBox="0 0 480 648"
   version="1.1"
   id="svg334"
   inkscape:version="1.1 (c68e22c387, 2021-05-23)"
   sodipodi:docname="seat-single.svg"
   xmlns:inkscape="http://www.inkscape.org/namespaces/inkscape"
   xmlns:sodipodi="http://sodipodi.sourceforge.net/DTD/sodipodi-0.dtd"
   xmlns="http://www.w3.org/2000/svg"
   xmlns:svg="http://www.w3.org/2000/svg">
  <sodipodi:namedview
     id="namedview336"
     pagecolor="#ffffff"
     bordercolor="#eeeeee"
     borderopacity="1"
     inkscape:pageshadow="0"
     inkscape:pageopacity="0"
     inkscape:pagecheckerboard="0"
     inkscape:document-units="px"
     showgrid="false"
     inkscape:zoom="1.0306873"
     inkscape:cx="115.94206"
     inkscape:cy="348.79639"
     inkscape:window-width="1920"
     inkscape:window-height="1017"
     inkscape:window-x="1358"
     inkscape:window-y="-8"
     inkscape:window-maximized="1"
     inkscape:current-layer="layer1"
     scale-x="0.10001"
     units="px" />
  <defs
     id="defs331" />
  <g
     inkscape:label="Layer 1"
     inkscape:groupmode="layer"
     id="layer1">
    <path
       style="display:inline;fill:none;stroke:#000000;stroke-width:0.678548px;stroke-linecap:butt;stroke-linejoin:miter;stroke-opacity:1"
       d="M 0.59899482,521.84061 C 8.7035723,472.83147 87.102659,426.56328 170.43092,442.50215 c 37.70398,10.41183 73.13434,21.80154 108.69134,34.36842 32.63355,11.53364 65.37383,24.05888 100.0764,37.72975 C 456.02392,553.45951 271.043,647.80691 232.15056,645.54401 127.58141,651.16508 -6.3260367,562.7706 0.59899482,521.84061 Z"
       id="path12001-4"
       sodipodi:nodetypes="ccsccc"
       inkscape:export-filename="/home/user/Pictures/standard1.png"
       inkscape:export-xdpi="17.706318"
       inkscape:export-ydpi="17.706318" />
    <path
       style="display:inline;fill:none;stroke:#000000;stroke-width:0.678548px;stroke-linecap:butt;stroke-linejoin:miter;stroke-opacity:1"
       d="m 22.631897,482.4799 c 0,0 -30.843255,36.59859 60.604628,79.72827 78.606385,37.07321 119.157615,39.80326 148.423865,31.84909 29.26625,-7.95415 53.52694,-30.8102 81.80518,-49.4483 28.27825,-18.63818 67.02245,-29.42854 67.02245,-29.42854"
       id="path14358-8"
       sodipodi:nodetypes="cszzc"
       inkscape:export-filename="/home/user/Pictures/standard1.png"
       inkscape:export-xdpi="17.706318"
       inkscape:export-ydpi="17.706318" />
    <path
       style="display:inline;fill:none;stroke:#000000;stroke-width:0.678548px;stroke-linecap:butt;stroke-linejoin:miter;stroke-opacity:1"
       d="m 37.508323,575.89472 c 0,0 -2.207863,-21.16378 8.42205,-35.89647 18.891877,-23.25232 60.211787,-62.88738 185.599427,-79.2472"
       id="path18346-8"
       sodipodi:nodetypes="ccc"
       inkscape:export-filename="/home/user/Pictures/standard1.png"
       inkscape:export-xdpi="17.706318"
       inkscape:export-ydpi="17.706318" />
    <path
       style="display:inline;fill:none;stroke:#000000;stroke-width:0.678548px;stroke-linecap:butt;stroke-linejoin:miter;stroke-opacity:1"
       d="m 157.3867,636.06706 c 0,0 -2.34201,-32.75971 6.91073,-43.4131 6.33129,-17.31783 80.7602,-80.01698 174.37857,-93.84115"
       id="path20823-89"
       sodipodi:nodetypes="ccc"
       inkscape:export-filename="/home/user/Pictures/standard1.png"
       inkscape:export-xdpi="17.706318"
       inkscape:export-ydpi="17.706318" />
    <path
       style="display:inline;fill:none;stroke:#000000;stroke-width:0.678548px;stroke-linecap:butt;stroke-linejoin:miter;stroke-opacity:1"
       d="m 180.70826,445.27551 c 0,0 -31.84177,-36.76673 -28.28046,-95.99551 3.56131,-59.2288 63.87548,-233.70128 113.40545,-242.34062 12.39358,-2.16173 161.93629,12.64807 188.48382,27.35657 12.67034,7.27155 26.62885,32.96193 25.24887,57.50038 -1.60833,28.59798 -8.66834,123.35306 -11.73517,155.57883 -7.93592,83.38828 -5.53998,62.41275 -9.35707,106.52037 -2.68989,31.08333 -56.58525,71.60721 -102.05191,51.8269"
       id="path21333-7"
       sodipodi:nodetypes="ccscsssc"
       inkscape:export-filename="/home/user/Pictures/standard1.png"
       inkscape:export-xdpi="17.706318"
       inkscape:export-ydpi="17.706318" />
    <path
       style="display:inline;fill:none;stroke:#000000;stroke-width:0.678548px;stroke-linecap:butt;stroke-linejoin:miter;stroke-opacity:1"
       d="m 417.41476,123.898 c 0,0 22.66606,6.38351 30.08979,42.75822 3.56084,20.08831 -10.99799,116.32311 -23.56821,193.7226 -15.15994,93.3454 -17.77908,157.46148 -60.58861,147.97714"
       id="path27011-6"
       sodipodi:nodetypes="ccsc"
       inkscape:export-filename="/home/user/Pictures/standard1.png"
       inkscape:export-xdpi="17.706318"
       inkscape:export-ydpi="17.706318" />
    <path
       style="display:inline;fill:none;stroke:#000000;stroke-width:0.9;stroke-linecap:butt;stroke-linejoin:miter;stroke-miterlimit:4;stroke-dasharray:3.6, 3.6;stroke-dashoffset:0;stroke-opacity:1"
       d="m 428.64425,126.46745 c 0,0 15.24475,4.35017 22.66848,40.72488 2.87478,20.08831 -19.79701,175.68148 -32.20275,253.20119 -9.54715,59.65732 -14.7923,78.7389 -35.99114,90.52223"
       id="path27011-6-0"
       sodipodi:nodetypes="ccsc"
       inkscape:export-filename="/home/user/Pictures/standard1.png"
       inkscape:export-xdpi="17.706318"
       inkscape:export-ydpi="17.706318" />
    <path
       style="display:inline;fill:none;stroke:#000000;stroke-width:0.9;stroke-linecap:butt;stroke-linejoin:miter;stroke-miterlimit:4;stroke-dasharray:3.6, 3.6;stroke-dashoffset:0;stroke-opacity:1"
       d="m 411.89551,123.17033 c 0,0 29.07047,12.71837 32.0069,45.21217 5.05779,15.7223 -22.56591,178.77457 -33.77936,256.47571 -8.81948,61.11266 -20.61366,78.92082 -41.32739,84.51896"
       id="path27011-6-0-1"
       sodipodi:nodetypes="ccsc"
       inkscape:export-filename="/home/user/Pictures/standard1.png"
       inkscape:export-xdpi="17.706318"
       inkscape:export-ydpi="17.706318" />
    <path
       style="display:inline;fill:none;stroke:#000000;stroke-width:0.678548px;stroke-linecap:butt;stroke-linejoin:miter;stroke-opacity:1"
       d="m 234.17705,461.40261 c 0,0 -16.22401,-41.90968 -16.12162,-70.81538 0.13513,-38.09379 11.71277,-72.46713 22.45105,-110.59041 11.28092,-40.04995 13.23054,-66.65341 17.8077,-118.39592 3.28509,-37.13679 21.28065,-54.60991 21.28065,-54.60991"
       id="path29429-43"
       sodipodi:nodetypes="csssc"
       inkscape:export-filename="/home/user/Pictures/standard1.png"
       inkscape:export-xdpi="17.706318"
       inkscape:export-ydpi="17.706318" />
    <path
       style="display:inline;fill:none;stroke:#000000;stroke-width:0.678548px;stroke-linecap:butt;stroke-linejoin:miter;stroke-opacity:1"
       d="m 344.52448,500.99809 c 0,0 -7.84439,-24.15905 -9.63321,-70.33903 -1.47452,-38.0655 5.43287,-84.53578 18.64323,-121.87454 13.32412,-37.66013 19.17745,-77.0167 21.38442,-130.49346 1.73175,-41.96344 22.01158,-57.93962 22.01158,-57.93962"
       id="path29429-9-3"
       sodipodi:nodetypes="csssc"
       inkscape:export-filename="/home/user/Pictures/standard1.png"
       inkscape:export-xdpi="17.706318"
       inkscape:export-ydpi="17.706318" />
    <path
       style="display:inline;fill:none;stroke:#000000;stroke-width:0.678548px;stroke-linecap:butt;stroke-linejoin:miter;stroke-opacity:1"
       d="m 255.5505,193.67403 c 0,0 72.23133,0.0225 116.86369,22.90255"
       id="path31068-0"
       sodipodi:nodetypes="cc"
       inkscape:export-filename="/home/user/Pictures/standard1.png"
       inkscape:export-xdpi="17.706318"
       inkscape:export-ydpi="17.706318" />
    <path
       style="display:inline;fill:none;stroke:#000000;stroke-width:0.678548px;stroke-linecap:butt;stroke-linejoin:miter;stroke-opacity:1"
       d="m 282.96922,107.16046 c 0,0 -25.25113,-24.917901 -23.54944,-47.52389 1.43948,-19.122642 2.68295,-48.117997 30.9378,-57.4674693 15.76189,-2.23766491 52.28738,-2.60393405 74.19837,-0.063059 21.91092,2.5407996 30.82653,5.0895195 41.31027,11.7325113 20.68489,13.107016 20.43142,48.887696 20.43142,48.887696 0,0 2.72095,35.56095 -29.35989,57.476891"
       id="path36667-9"
       sodipodi:nodetypes="csccscc"
       inkscape:export-filename="/home/user/Pictures/standard1.png"
       inkscape:export-xdpi="17.706318"
       inkscape:export-ydpi="17.706318" />
    <path
       style="display:inline;fill:none;stroke:#000000;stroke-width:0.678548px;stroke-linecap:butt;stroke-linejoin:miter;stroke-opacity:1"
       d="m 401.35971,11.314306 c 0,0 -23.47942,10.388673 -21.86184,41.889394 1.61764,31.500648 17.54299,66.74052 17.54299,66.74052"
       id="path39327-4"
       sodipodi:nodetypes="csc"
       inkscape:export-filename="/home/user/Pictures/standard1.png"
       inkscape:export-xdpi="17.706318"
       inkscape:export-ydpi="17.706318" />
    <path
       style="fill:none;stroke:#000000;stroke-width:1;stroke-linecap:butt;stroke-linejoin:miter;stroke-miterlimit:4;stroke-dasharray:3, 3;stroke-dashoffset:0;stroke-opacity:1"
       d="m 398.25416,9.6047514 c 0,0 -21.37316,11.2516036 -21.78221,38.5905186 -0.41072,27.450521 17.15134,71.26383 17.15134,71.26383"
       id="path2227"
       sodipodi:nodetypes="csc" />
    <path
       style="fill:none;stroke:#000000;stroke-width:1;stroke-linecap:butt;stroke-linejoin:miter;stroke-miterlimit:4;stroke-dasharray:2,2;stroke-dashoffset:0;stroke-opacity:1"
       d="m 404.27648,13.154288 c 0,0 -18.84461,9.316082 -21.08727,33.466814 -1.4942,26.951278 16.66535,71.018848 16.66535,71.018848"
       id="path3886"
       sodipodi:nodetypes="ccc" />
    <path
       style="fill:none;stroke:#000000;stroke-width:0.9;stroke-linecap:butt;stroke-linejoin:miter;stroke-opacity:1;stroke-miterlimit:4;stroke-dasharray:3.6,3.6;stroke-dashoffset:0"
       d="m 186.1848,446.8062 c 0,0 -26.16685,-38.67669 -29.45161,-83.10372 -3.28477,-44.42703 58.6455,-244.78836 116.91375,-256.54879"
       id="path9506"
       sodipodi:nodetypes="czc" />
  </g>
</svg>
