<?xml version="1.0" standalone="no"?><svg xmlns="http://www.w3.org/2000/svg" viewBox="0 0 1440 320"><path fill="#000000" fill-opacity="1" d="M0,224L21.8,197.3C43.6,171,87,117,131,117.3C174.5,117,218,171,262,186.7C305.5,203,349,181,393,170.7C436.4,160,480,160,524,149.3C567.3,139,611,117,655,128C698.2,139,742,181,785,170.7C829.1,160,873,96,916,106.7C960,117,1004,203,1047,240C1090.9,277,1135,267,1178,229.3C1221.8,192,1265,128,1309,96C1352.7,64,1396,64,1418,64L1440,64L1440,0L1418.2,0C1396.4,0,1353,0,1309,0C1265.5,0,1222,0,1178,0C1134.5,0,1091,0,1047,0C1003.6,0,960,0,916,0C872.7,0,829,0,785,0C741.8,0,698,0,655,0C610.9,0,567,0,524,0C480,0,436,0,393,0C349.1,0,305,0,262,0C218.2,0,175,0,131,0C87.3,0,44,0,22,0L0,0Z"></path></svg>